<svg width="50" height="50" viewBox="0 0 50 50" fill="none" xmlns="http://www.w3.org/2000/svg">
<g clip-path="url(#clip0_14_2)">
<path d="M13.4 7.816V32.632C13.4 36.344 12.632 39.448 11.096 41.944C9.592 44.472 7.224 46.568 3.992 48.232L3.32 47.368C4.248 46.792 5.08 46.136 5.816 45.4C6.584 44.664 7.224 43.736 7.736 42.616C8.248 41.528 8.632 40.152 8.888 38.488C9.176 36.856 9.32 34.824 9.32 32.392V7.816C9.32 7.56 9.256 7.224 9.128 6.808C9.032 6.36 8.84 6.104 8.552 6.04L5.096 5.176V4.168L5.432 3.88H17.432L17.768 4.168L17.672 5.32L14.408 5.992C14.12 6.056 13.88 6.264 13.688 6.616C13.496 6.968 13.4 7.368 13.4 7.816ZM47.6551 8.872L44.9191 11.656L44.2471 11.608C43.4471 9.432 42.3111 7.864 40.8391 6.904C39.3671 5.912 37.6391 5.416 35.6551 5.416C33.4791 5.416 31.6391 5.848 30.1351 6.712C28.6311 7.576 27.4151 8.744 26.4871 10.216C25.5591 11.688 24.8871 13.32 24.4711 15.112C24.0551 16.872 23.8471 18.664 23.8471 20.488C23.8471 21.96 24.0551 23.416 24.4711 24.856C24.9191 26.296 25.4471 27.576 26.0551 28.696C26.6631 29.816 27.2231 30.648 27.7351 31.192C29.0471 32.504 30.3111 33.496 31.5271 34.168C32.7751 34.84 34.3751 35.176 36.3271 35.176C37.9591 35.176 39.5271 34.872 41.0311 34.264C42.5351 33.624 43.9591 32.856 45.3031 31.96L46.1191 33.352C44.3911 34.536 42.5671 35.56 40.6471 36.424C38.7271 37.288 36.7271 37.72 34.6471 37.72C32.7591 37.72 30.8871 37.48 29.0311 37C27.1751 36.488 25.5591 35.544 24.1831 34.168C22.5191 32.472 21.3351 30.504 20.6311 28.264C19.9271 25.992 19.5751 23.688 19.5751 21.352C19.5751 19.048 19.8791 16.776 20.4871 14.536C21.1271 12.296 22.2791 10.344 23.9431 8.68C25.7031 6.92 27.7351 5.608 30.0391 4.744C32.3751 3.88 34.7911 3.448 37.2871 3.448C39.3991 3.448 41.3351 3.848 43.0951 4.648C44.8871 5.416 46.4071 6.824 47.6551 8.872Z" fill="url(#paint0_linear_14_2)"/>
</g>
<defs>
<linearGradient id="paint0_linear_14_2" x1="-5.72826" y1="-4.32787" x2="58.6413" y2="-4.32787" gradientUnits="userSpaceOnUse">
<stop stop-color="#656565"/>
<stop offset="0.99" stop-color="#B3FFB3"/>
</linearGradient>
<clipPath id="clip0_14_2">
<rect width="50" height="50" fill="white"/>
</clipPath>
</defs>
</svg>
