<svg width="48" height="48" viewBox="0 0 48 48" fill="none" xmlns="http://www.w3.org/2000/svg">
<g clip-path="url(#clip0_14_2)">
<path d="M12.4 6.816V31.632C12.4 35.344 11.632 38.448 10.096 40.944C8.592 43.472 6.224 45.568 2.992 47.232L2.32 46.368C3.248 45.792 4.08 45.136 4.816 44.4C5.584 43.664 6.224 42.736 6.736 41.616C7.248 40.528 7.632 39.152 7.888 37.488C8.176 35.856 8.32 33.824 8.32 31.392V6.816C8.32 6.56 8.256 6.224 8.128 5.808C8.032 5.36 7.84 5.104 7.552 5.04L4.096 4.176V3.168L4.432 2.88H16.432L16.768 3.168L16.672 4.32L13.408 4.992C13.12 5.056 12.88 5.264 12.688 5.616C12.496 5.968 12.4 6.368 12.4 6.816ZM46.6551 7.872L43.9191 10.656L43.2471 10.608C42.4471 8.432 41.3111 6.864 39.8391 5.904C38.3671 4.912 36.6391 4.416 34.6551 4.416C32.4791 4.416 30.6391 4.848 29.1351 5.712C27.6311 6.576 26.4151 7.744 25.4871 9.216C24.5591 10.688 23.8871 12.32 23.4711 14.112C23.0551 15.872 22.8471 17.664 22.8471 19.488C22.8471 20.96 23.0551 22.416 23.4711 23.856C23.9191 25.296 24.4471 26.576 25.0551 27.696C25.6631 28.816 26.2231 29.648 26.7351 30.192C28.0471 31.504 29.3111 32.496 30.5271 33.168C31.7751 33.84 33.3751 34.176 35.3271 34.176C36.9591 34.176 38.5271 33.872 40.0311 33.264C41.5351 32.624 42.9591 31.856 44.3031 30.96L45.1191 32.352C43.3911 33.536 41.5671 34.56 39.6471 35.424C37.7271 36.288 35.7271 36.72 33.6471 36.72C31.7591 36.72 29.8871 36.48 28.0311 36C26.1751 35.488 24.5591 34.544 23.1831 33.168C21.5191 31.472 20.3351 29.504 19.6311 27.264C18.9271 24.992 18.5751 22.688 18.5751 20.352C18.5751 18.048 18.8791 15.776 19.4871 13.536C20.1271 11.296 21.2791 9.344 22.9431 7.68C24.7031 5.92 26.7351 4.608 29.0391 3.744C31.3751 2.88 33.7911 2.448 36.2871 2.448C38.3991 2.448 40.3351 2.848 42.0951 3.648C43.8871 4.416 45.4071 5.824 46.6551 7.872Z" fill="url(#paint0_linear_14_2)"/>
</g>
<defs>
<linearGradient id="paint0_linear_14_2" x1="-6.72826" y1="-5.32787" x2="57.6413" y2="-5.32787" gradientUnits="userSpaceOnUse">
<stop stop-color="#656565"/>
<stop offset="0.99" stop-color="#B3FFB3"/>
</linearGradient>
<clipPath id="clip0_14_2">
<rect width="48" height="48" fill="white"/>
</clipPath>
</defs>
</svg>
